<?xml version="1.0" ?><svg fill="#c0392b" id="Layer_1" style="enable-background:new 0 0 750 750;" version="1.1" viewBox="0 0 750 750" xml:space="preserve" xmlns="http://www.w3.org/2000/svg" xmlns:xlink="http://www.w3.org/1999/xlink"><g><path class="st0" d="M706.4,239.2c-18.4-32.4-44.6-61.3-78-86.2C560.6,102.5,470.6,74.7,375,74.7S189.4,102.5,121.6,153   c-33.3,24.8-59.6,53.8-78,86.2c-19.2,33.8-29,69.8-29,107s9.7,73.1,29,107c18.4,32.4,44.6,61.3,78,86.2   c67.8,50.5,157.8,78.3,253.4,78.3c49.3,0,97-7.3,142-21.8c4.6-1.5,9.5-0.3,12.8,3l68.8,68.8c5.1,5.1,11.8,7.8,18.7,7.8   c3.4,0,6.8-0.7,10.1-2c9.9-4.1,16.3-13.7,16.3-24.4V532.9c0-3.6,1.6-7,4.3-9.4c56.4-49.2,87.4-112.2,87.4-177.4   C735.4,309,725.6,273,706.4,239.2z M631.5,504.7c-8.2,7.1-12.8,17.4-12.8,28.3v115.9c0,0.3,0,0.9-0.9,1.3c-0.9,0.4-1.3-0.1-1.5-0.3   l-68.8-68.8c-7.2-7.2-16.7-11-26.5-11c-3.9,0-7.8,0.6-11.7,1.8c-42.4,13.7-87.6,20.6-134.3,20.6C190.1,592.6,39.6,482,39.6,346.1   S190.1,99.7,375,99.7s335.4,110.6,335.4,246.4c0,29.4-7,58.1-20.8,85.4C676.1,458.2,656.6,482.8,631.5,504.7z"/><path class="st0" d="M201.8,288.7c-32.7,0-59.3,26.6-59.3,59.3s26.6,59.3,59.3,59.3c32.7,0,59.3-26.6,59.3-59.3   S234.5,288.7,201.8,288.7z M201.8,382.2c-18.9,0-34.3-15.4-34.3-34.3s15.4-34.3,34.3-34.3c18.9,0,34.3,15.4,34.3,34.3   S220.7,382.2,201.8,382.2z"/><path class="st0" d="M548.2,288.7c-32.7,0-59.3,26.6-59.3,59.3s26.6,59.3,59.3,59.3s59.3-26.6,59.3-59.3S580.9,288.7,548.2,288.7z    M548.2,382.2c-18.9,0-34.3-15.4-34.3-34.3s15.4-34.3,34.3-34.3s34.3,15.4,34.3,34.3S567.1,382.2,548.2,382.2z"/><path class="st0" d="M375,288.7c-32.7,0-59.3,26.6-59.3,59.3s26.6,59.3,59.3,59.3c32.7,0,59.3-26.6,59.3-59.3   S407.7,288.7,375,288.7z M375,382.2c-18.9,0-34.3-15.4-34.3-34.3s15.4-34.3,34.3-34.3c18.9,0,34.3,15.4,34.3,34.3   S393.9,382.2,375,382.2z"/></g></svg>