<?xml version="1.0" encoding="UTF-8"?>
<svg width="34px" height="34px" viewBox="0 0 34 34" version="1.1" xmlns="http://www.w3.org/2000/svg" xmlns:xlink="http://www.w3.org/1999/xlink">
    <!-- Generator: Sketch 44.1 (41455) - http://www.bohemiancoding.com/sketch -->
    <title>Fill 1</title>
    <desc>Created with Sketch.</desc>
    <defs></defs>
    <g id="Page-1" stroke="none" stroke-width="1" fill="none" fill-rule="evenodd">
        <g id="Artboard-Copy-5" transform="translate(-544.000000, -416.000000)" stroke-width="0.2" stroke="#99BBEF" fill="#99BBEF">
            <g id="Group-4">
                <g id="Group-6" transform="translate(357.000000, 411.000000)">
                    <g id="Group-32-Copy-2" transform="translate(188.000000, 0.000000)">
                        <g id="Page-1" transform="translate(0.000000, 6.000000)">
                            <g id="Group-3" transform="translate(0.000000, 0.059297)">
                                <path d="M29.9999311,29.5492381 C29.9999311,29.9198207 29.7009491,30.220293 29.3338267,30.220293 L2.66699371,30.220293 C2.2990352,30.220293 1.99988603,29.9198207 1.99988603,29.5492381 L1.99988603,5.7245583 C1.99988603,5.35397574 2.2990352,5.05350339 2.66699371,5.05350339 L7.00022552,5.05350339 L7.00022552,7.06759395 C7.00022552,7.62401488 7.44727712,8.07354508 8.00000915,8.07354508 C8.55249036,8.07354508 8.99987639,7.62401488 8.99987639,7.06759395 L8.99987639,5.05350339 L14.9996651,5.05350339 L14.9996651,7.06759395 C14.9996651,7.62401488 15.4472183,8.07354508 16.000034,8.07354508 C16.552766,8.07354508 16.9998176,7.62401488 16.9998176,7.06759395 L16.9998176,5.05350339 L23.0001916,5.05350339 L23.0001916,7.06759395 C23.0001916,7.62401488 23.4472432,8.07354508 23.9999752,8.07354508 C24.5527908,8.07354508 25.0003441,7.62401488 25.0003441,7.06759395 L25.0003441,5.05350339 L29.3338267,5.05350339 C29.7009491,5.05350339 29.9999311,5.35397574 29.9999311,5.7245583 L29.9999311,29.5492381 Z M29.3338267,3.04059115 L25.0003441,3.04059115 L25.0003441,1.02658475 C25.0003441,0.47016382 24.5527908,0.0195394622 23.9999752,0.0195394622 C23.4472432,0.0195394622 23.0001916,0.47016382 23.0001916,1.02658475 L23.0001916,3.04059115 L16.9998176,3.04059115 L16.9998176,1.02658475 C16.9998176,0.47016382 16.552766,0.0195394622 16.000034,0.0195394622 C15.4472183,0.0195394622 14.9996651,0.47016382 14.9996651,1.02658475 L14.9996651,3.04059115 L8.99987639,3.04059115 L8.99987639,1.02658475 C8.99987639,0.47016382 8.55249036,0.0195394622 8.00000915,0.0195394622 C7.44727712,0.0195394622 7.00022552,0.47016382 7.00022552,1.02658475 L7.00022552,3.04059115 L2.66699371,3.04059115 C1.19332032,3.04059115 -1.56657961e-05,4.24214388 -1.56657961e-05,5.7245583 L-1.56657961e-05,29.5492381 C-1.56657961e-05,31.0327467 1.19332032,32.2342153 2.66699371,32.2342153 L29.3338267,32.2342153 C30.8064132,32.2342153 32,31.0327467 32,29.5492381 L32,5.7245583 C32,4.24214388 30.8064132,3.04059115 29.3338267,3.04059115 L29.3338267,3.04059115 Z" id="Fill-1"></path>
                            </g>
                        </g>
                    </g>
                </g>
            </g>
        </g>
    </g>
</svg>