<?xml version="1.0" encoding="UTF-8" standalone="no"?>
<svg width="141px" height="82px" viewBox="0 0 141 82" version="1.1" xmlns="http://www.w3.org/2000/svg" xmlns:xlink="http://www.w3.org/1999/xlink">
    <!-- Generator: Sketch 40 (33762) - http://www.bohemiancoding.com/sketch -->
    <title>1499353333_02</title>
    <desc>Created with Sketch.</desc>
    <defs></defs>
    <g id="Page-1" stroke="none" stroke-width="1" fill="none" fill-rule="evenodd">
        <g id="1499353333_02" fill="#99BBEF">
            <g id="Livello_26">
                <path d="M62.595,78.107 C62.595,77.545 63.043,77.094 63.603,77.094 L78.128,77.094 C78.689,77.094 79.14,77.544 79.14,78.107 C79.14,78.668 78.689,79.121 78.128,79.121 L63.603,79.121 C63.045,79.12 62.595,78.667 62.595,78.107 L62.595,78.107 Z M121.003,71.664 L20.315,71.664 L20.315,4.219 L121.003,4.219 L121.003,71.664 L121.003,71.664 L121.003,71.664 Z M141.024,78.603 C141.024,77.103 139.811,75.887 138.317,75.887 L138.317,75.694 L123.954,75.694 C124.686,75.366 125.2,74.631 125.2,73.771 L125.2,2.107 C125.2,0.943 124.262,0 123.1,0 L18.216,0 C17.061,0 16.119,0.943 16.119,2.107 L16.119,73.77 C16.119,74.625 16.632,75.365 17.364,75.693 L3.414,75.693 L3.414,75.881 C1.92,75.88 0.708,77.098 0.708,78.6 C0.708,80.102 1.92,81.32 3.414,81.32 L138.317,81.32 C139.813,81.318 141.024,80.103 141.024,78.603 L141.024,78.603 Z" id="Shape"></path>
            </g>
        </g>
    </g>
</svg>