<?xml version="1.0" encoding="UTF-8" standalone="no"?>
<svg width="54px" height="49px" viewBox="0 0 54 49" version="1.1" xmlns="http://www.w3.org/2000/svg" xmlns:xlink="http://www.w3.org/1999/xlink">
    <!-- Generator: Sketch 40 (33762) - http://www.bohemiancoding.com/sketch -->
    <title>1499353269_9</title>
    <desc>Created with Sketch.</desc>
    <defs></defs>
    <g id="Page-1" stroke="none" stroke-width="1" fill="none" fill-rule="evenodd">
        <g id="1499353269_9" fill="#99BBEF">
            <path d="M33.5,17.5 C33.5,14.7 32.8,11.9 31.4,9.5 C31,8.8 30.1,8.5 29.4,8.9 C28.7,9.3 28.4,10.2 28.8,10.9 C29.9,12.9 30.5,15.2 30.5,17.4 C30.5,24.9 24.4,31 17,31 C9.6,31 3.5,24.9 3.5,17.5 C3.5,10.1 9.6,4 17,4 C18.8,4 20.6,4.3 22.2,5 C23,5.3 23.8,5 24.2,4.2 C24.5,3.4 24.2,2.6 23.4,2.2 C21.4,1.4 19.2,0.9 17,0.9 C7.9,0.9 0.5,8.3 0.5,17.4 C0.5,26 7.1,33.1 15.5,33.8 L15.5,41 L12,41 C11.2,41 10.5,41.7 10.5,42.5 C10.5,43.3 11.2,44 12,44 L15.5,44 L15.5,47.4 C15.5,48.2 16.2,48.9 17,48.9 C17.8,48.9 18.5,48.2 18.5,47.4 L18.5,44 L22,44 C22.8,44 23.5,43.3 23.5,42.5 C23.5,41.7 22.8,41 22,41 L18.5,41 L18.5,33.8 C26.9,33.2 33.5,26.1 33.5,17.5 L33.5,17.5 Z" id="Shape"></path>
            <path d="M37,1 C27.9,1 20.5,8.4 20.5,17.5 C20.5,20.3 21.2,23.1 22.6,25.5 C23,26.2 23.9,26.5 24.6,26.1 C25.3,25.7 25.6,24.8 25.2,24.1 C24.1,22.1 23.5,19.8 23.5,17.6 C23.5,10.1 29.6,4 37,4 C44.4,4 50.5,10.1 50.5,17.5 C50.5,24.9 44.4,31 37,31 C35.2,31 33.4,30.6 31.7,29.9 C30.9,29.6 30.1,29.9 29.7,30.7 C29.4,31.5 29.7,32.3 30.5,32.7 C32.1,33.4 33.7,33.8 35.4,33.9 L35.4,41.1 L32,41.1 C31.2,41.1 30.5,41.8 30.5,42.6 C30.5,43.4 31.2,44.1 32,44.1 L35.5,44.1 L35.5,47.5 C35.5,48.3 36.2,49 37,49 C37.8,49 38.5,48.3 38.5,47.5 L38.5,44.1 L42,44.1 C42.8,44.1 43.5,43.4 43.5,42.6 C43.5,41.8 42.8,41.1 42,41.1 L38.5,41.1 L38.5,33.9 C46.9,33.1 53.5,26.1 53.5,17.5 C53.5,8.4 46.1,1 37,1 L37,1 Z" id="Shape"></path>
        </g>
    </g>
</svg>