<?xml version="1.0" encoding="UTF-8"?>
<svg width="12px" height="13px" viewBox="0 0 12 13" version="1.1" xmlns="http://www.w3.org/2000/svg" xmlns:xlink="http://www.w3.org/1999/xlink">
    <!-- Generator: Sketch 44.1 (41455) - http://www.bohemiancoding.com/sketch -->
    <title>Fill 1</title>
    <desc>Created with Sketch.</desc>
    <defs></defs>
    <g id="Page-1" stroke="none" stroke-width="1" fill="none" fill-rule="evenodd">
        <g id="Artboard-Copy-5" transform="translate(-41.000000, -479.000000)" stroke="#99BBEF" stroke-width="0.4" fill="#99BBEF">
            <g id="Group-42" transform="translate(39.000000, 317.000000)">
                <path d="M13.8647933,168.151418 L9.29683859,163.148052 C9.11640922,162.950399 8.82430746,162.9509 8.64433955,163.148052 C8.46391018,163.345204 8.46391018,163.665452 8.64433955,163.862604 L12.4250501,168.003303 L2.46145618,168.003303 C2.20673237,168.003303 2,168.229478 2,168.508694 C2,168.78791 2.20673237,169.014084 2.46145618,169.014084 L12.4245886,169.014084 L8.64433955,173.154784 C8.46391018,173.352436 8.46437164,173.672183 8.64433955,173.869336 C8.82476892,174.066488 9.11687068,174.066488 9.29683859,173.869336 L13.8647933,168.86597 C13.9510856,168.771397 13.9986156,168.641296 14,168.508694 C14,168.375091 13.9492398,168.247492 13.8647933,168.151418 Z" id="Fill-1" transform="translate(8.000000, 168.508600) scale(1, -1) rotate(-90.000000) translate(-8.000000, -168.508600) "></path>
            </g>
        </g>
    </g>
</svg>