<?xml version="1.0" encoding="UTF-8" standalone="no"?>
<svg width="392px" height="237px" viewBox="0 0 392 237" version="1.1" xmlns="http://www.w3.org/2000/svg" xmlns:xlink="http://www.w3.org/1999/xlink">
    <!-- Generator: Sketch 46.2 (44496) - http://www.bohemiancoding.com/sketch -->
    <title>if_education-school-learn-study-04_2125342</title>
    <desc>Created with Sketch.</desc>
    <defs></defs>
    <g id="Page-1" stroke="none" stroke-width="1" fill="none" fill-rule="evenodd">
        <g id="if_education-school-learn-study-04_2125342" fill-rule="nonzero" fill="#C0392B">
            <path d="M385.788,67.561 L199.027,0.858 C197.07,0.159 194.929,0.159 192.972,0.858 L6.212,67.561 C2.598,68.852 0.199,72.294 0.24,76.132 C0.28,79.97 2.751,83.361 6.392,84.575 L82.034,109.796 L82.034,197.696 C82.034,201.708 84.689,205.236 88.546,206.345 L193.512,236.548 C194.325,236.781 195.162,236.899 196,236.899 C196.838,236.899 197.676,236.782 198.488,236.548 L231.539,227.038 C236.316,225.663 239.074,220.677 237.7,215.9 C236.325,211.123 231.342,208.363 226.562,209.739 L196,218.533 L100.034,190.92 L100.034,115.797 L193.153,146.845 C195.001,147.461 196.999,147.462 198.846,146.845 L215.566,141.271 C215.567333,141.271 220.263333,139.705333 229.654,136.574 C234.369,135.002 236.918,129.905 235.345,125.189 C233.772,120.474 228.676,117.924 223.96,119.498 L196,128.82 L112.314,100.917 L36.815,75.744 L196,18.89 L355.185,75.744 L298.121,94.771 C298.120333,94.771 295.772333,95.5536667 291.077,97.119 L285.271,99.055 C285.271,99.055 282.27,100.055333 276.268,102.056 C271.552,103.628 269.004,108.725 270.577,113.441 C272.149,118.156 277.244,120.701 281.962,119.132 L291.967,115.796 L291.967,190.919 L280.749,194.147 C275.972,195.522 273.214,200.508 274.588,205.285 C275.724,209.231 279.322,211.799 283.234,211.799 C284.057,211.799 284.895,211.686 285.726,211.446 L303.455,206.344 C307.311,205.235 309.967,201.706 309.967,197.695 L309.967,109.795 L385.609,84.574 C389.251,83.36 391.721,79.97 391.761,76.131 C391.801,72.293 389.402,68.852 385.788,67.561 Z" id="Shape"></path>
        </g>
    </g>
</svg>