<?xml version="1.0" encoding="UTF-8"?>
<svg width="18px" height="24px" viewBox="0 0 18 24" version="1.1" xmlns="http://www.w3.org/2000/svg" xmlns:xlink="http://www.w3.org/1999/xlink">
    <!-- Generator: Sketch 44.1 (41455) - http://www.bohemiancoding.com/sketch -->
    <title>Fill 1</title>
    <desc>Created with Sketch.</desc>
    <defs></defs>
    <g id="Page-1" stroke="none" stroke-width="1" fill="none" fill-rule="evenodd">
        <g id="Artboard-Copy-5" transform="translate(-1264.000000, -741.000000)" stroke="#3D4152" stroke-width="1.6">
            <g id="Group-4" transform="translate(0.000000, 532.000000)">
                <g id="Group-9" transform="translate(770.000000, 155.000000)">
                    <g id="Group-20" transform="translate(0.000000, 46.000000)">
                        <g id="Group-18" transform="translate(495.000000, 9.000000)">
                            <path d="M10.7536781,21.4108766 C8.54184708,21.8051525 4.47926725,21.8699206 3.26486515,21.4157342 C2.49169581,21.0214583 1.81972665,20.4296397 1.31696418,19.7204289 C0.444213867,18.4809291 0.0993236701,16.9499729 0.0175539286,15.4554487 C-0.0690734213,13.6751352 0.168139789,11.8875353 0.627993385,10.1695611 C0.754291204,9.62388978 1.08379897,9.12841372 1.55174858,8.81509798 C2.21886014,8.3657692 3.03817676,8.23137537 3.82753812,8.1908953 C5.14637881,8.15932084 6.46036188,8.37386521 7.72981688,8.72118421 C6.95664754,7.81524025 6.59961332,6.63646061 6.44093145,5.4754922 C6.29034559,4.35257505 6.29358399,3.21346588 6.42231061,2.08811993 C6.45388507,1.7237993 6.49193633,1.33438103 6.72510154,1.03239971 C7.31044335,0.24222874 8.69567135,-0.224101668 9.30773001,0.108644508 C9.91978867,0.43896188 10.5520874,4.99296976 12.8594514,7.2687593 C13.7127712,8.16174965 14.6486705,8.97297025 15.6558146,9.68865789 C16.093809,11.8300536 16.0832841,14.057267 15.795066,16.2318564 C15.6460994,17.2033781 15.5448992,18.1716614 15.0688536,19.0371253 C14.7150578,19.7107136 14.0965223,20.2045705 13.4277915,20.5397455 C12.5930925,20.983407 11.6725757,21.2214298 10.7536781,21.4108766" id="Fill-1" transform="translate(7.999924, 10.865996) scale(-1, 1) translate(-7.999924, -10.865996) "></path>
                        </g>
                    </g>
                </g>
            </g>
        </g>
    </g>
</svg>