<?xml version="1.0" encoding="UTF-8" standalone="no"?>
<svg width="49px" height="46px" viewBox="0 0 49 46" version="1.1" xmlns="http://www.w3.org/2000/svg" xmlns:xlink="http://www.w3.org/1999/xlink">
    <!-- Generator: Sketch 45.2 (43514) - http://www.bohemiancoding.com/sketch -->
    <title>if_price_tag_pound_172528</title>
    <desc>Created with Sketch.</desc>
    <defs></defs>
    <g id="Page-1" stroke="none" stroke-width="1" fill="none" fill-rule="evenodd">
        <g id="if_price_tag_pound_172528" transform="translate(25.000000, 23.000000) rotate(-96.000000) translate(-25.000000, -23.000000) translate(0.000000, -2.000000)">
            <rect id="Rectangle-path" x="0" y="0" width="50" height="50"></rect>
            <circle id="Oval" stroke="#c0392b" stroke-width="2" stroke-linecap="round" cx="39" cy="11" r="3"></circle>
            <path d="M47,5.5 C47,4.119 45.881,3 44.5,3 C44.344,3 29.624,3.002 29.624,3.002 C28.294,3.002 27.021,2.932 26.283,3.67 L3.554,26.398 C2.815,27.136 2.815,28.334 3.554,29.072 L20.928,46.446 C21.666,47.184 22.864,47.184 23.602,46.446 L46.33,23.717 C47.068,22.98 46.998,21.737 46.998,20.377 C46.998,20.377 47,5.656 47,5.5 Z" id="Shape" stroke="#c0392b" stroke-width="2" stroke-linecap="round"></path>
            <path d="M22.619,22.404 C22.772,21.812 22.978,21.24 23.236,20.686 C23.494,20.132 23.886,19.593 24.412,19.067 C24.938,18.541 25.508,18.173 26.121,17.964 C26.736,17.757 27.357,17.683 27.988,17.743 C28.618,17.803 29.234,17.98 29.838,18.276 C30.441,18.573 30.994,18.972 31.498,19.477 C32.715,20.694 33.317,22.002 33.307,23.407 C33.296,24.809 32.573,26.207 31.137,27.599 L29.739,26.202 C30.682,25.216 31.218,24.264 31.343,23.348 C31.47,22.434 31.138,21.581 30.349,20.792 C30.02,20.463 29.658,20.211 29.263,20.035 C28.868,19.859 28.469,19.762 28.064,19.738 C27.658,19.717 27.263,19.777 26.88,19.92 C26.495,20.063 26.15,20.287 25.843,20.594 C25.58,20.858 25.364,21.128 25.195,21.408 C25.024,21.687 24.883,21.968 24.767,22.247 C24.651,22.526 24.55,22.809 24.462,23.093 C24.374,23.379 24.281,23.669 24.183,23.965 L26.797,26.579 L26.058,27.318 L23.805,25.066 C23.718,25.33 23.603,25.597 23.46,25.871 C23.316,26.145 23.13,26.398 22.9,26.628 C22.527,27.001 22.14,27.277 21.741,27.459 C21.341,27.64 20.93,27.766 20.508,27.837 C20.086,27.908 19.655,27.933 19.218,27.91 C18.779,27.889 18.341,27.855 17.902,27.812 L17.902,27.877 C18.307,28.041 18.694,28.208 19.061,28.378 C19.428,28.548 19.776,28.798 20.105,29.127 C20.422,29.444 20.68,29.757 20.877,30.064 C21.074,30.372 21.255,30.662 21.42,30.936 C21.573,31.22 21.729,31.507 21.889,31.798 C22.047,32.089 22.252,32.36 22.505,32.612 C22.768,32.876 23.092,33.073 23.475,33.204 C23.859,33.336 24.225,33.423 24.577,33.468 L24.2,35.259 C23.585,35.215 23.015,35.034 22.489,34.717 C21.963,34.399 21.485,34.027 21.058,33.599 C20.784,33.325 20.549,33.023 20.352,32.695 C20.155,32.367 19.952,32.021 19.743,31.659 C19.557,31.297 19.36,30.941 19.151,30.591 C18.943,30.24 18.679,29.905 18.362,29.588 C18.044,29.27 17.701,29.031 17.334,28.873 C16.967,28.713 16.575,28.59 16.159,28.503 L16.455,26.661 C16.838,26.738 17.245,26.781 17.671,26.793 C18.099,26.804 18.523,26.768 18.946,26.686 C19.368,26.604 19.77,26.47 20.154,26.284 C20.538,26.098 20.888,25.846 21.207,25.527 C21.459,25.275 21.679,24.969 21.864,24.606 C22.05,24.245 22.204,23.905 22.325,23.586 L20.927,22.19 L21.667,21.45 L22.619,22.404 Z" id="Shape" fill="#c0392b" fill-rule="nonzero"></path>
        </g>
    </g>
</svg>