<?xml version="1.0" encoding="UTF-8"?>
<svg width="30px" height="23px" viewBox="0 0 30 23" version="1.1" xmlns="http://www.w3.org/2000/svg" xmlns:xlink="http://www.w3.org/1999/xlink">
    <!-- Generator: Sketch 44.1 (41455) - http://www.bohemiancoding.com/sketch -->
    <title>Fill 1</title>
    <desc>Created with Sketch.</desc>
    <defs></defs>
    <g id="Page-1" stroke="none" stroke-width="1" fill="none" fill-rule="evenodd">
        <g id="Artboard-Copy-5" transform="translate(-438.000000, -3525.000000)" stroke="#3D4152" stroke-width="1.6">
            <g id="Group-29" transform="translate(110.000000, 2843.000000)">
                <g id="Group-34" transform="translate(0.000000, 83.000000)">
                    <g id="Group-20" transform="translate(1.000000, 600.000000)">
                        <g id="Group-19" transform="translate(330.000000, 1.000000)">
                            <path d="M8.15786784,19.698295 C17.3040117,19.698295 22.3066407,12.1183237 22.3066407,5.54952213 C22.3066407,5.3366443 22.3066407,5.12376647 22.2914352,4.90328586 C23.264591,4.19622736 24.1008967,3.32951048 24.7699413,2.32594357 C23.8652105,2.72889089 22.8996575,2.99498817 21.9112962,3.10902987 C22.952877,2.48560194 23.7283605,1.51244615 24.1008967,0.356823643 C23.1277409,0.934634895 22.055749,1.34518499 20.9457432,1.5656656 C19.0602538,-0.433865438 15.9127031,-0.532701574 13.913172,1.35278777 C12.6206995,2.56923251 12.0732993,4.37869407 12.4762467,6.10452504 C8.47718458,5.90685277 4.75182256,4.01376064 2.22769973,0.911826556 C0.904816071,3.18505766 1.58146346,6.08931948 3.76346121,7.54905317 C2.97277213,7.52624483 2.19728861,7.313367 1.50543566,6.92562524 L1.50543566,6.98644748 C1.50543566,9.35091194 3.17804718,11.3884569 5.49689497,11.8598292 C4.76702812,12.0575015 3.99914738,12.0879126 3.25407498,11.9434598 C3.90791402,13.9657992 5.77059503,15.3571078 7.89937333,15.3951217 C6.13552846,16.7788276 3.96113348,17.5315028 1.72591627,17.5315028 C1.33057173,17.5315028 0.93522719,17.5086945 0.539882649,17.4630778 C2.80551098,18.9228115 5.45127829,19.698295 8.15786784,19.698295" id="Fill-1"></path>
                        </g>
                    </g>
                </g>
            </g>
        </g>
    </g>
</svg>